<?xml version="1.0" encoding="utf-8"?>
<!-- Generator: Adobe Illustrator 25.1.0, SVG Export Plug-In . SVG Version: 6.00 Build 0)  -->
<svg version="1.1" id="Layer_1" xmlns="http://www.w3.org/2000/svg" xmlns:xlink="http://www.w3.org/1999/xlink" x="0px" y="0px"
	 viewBox="0 0 1109 1080" style="enable-background:new 0 0 1109 1080;" xml:space="preserve">
<style type="text/css">
	.st0{fill:#F26D43;}
	.st1{opacity:0.6;fill:#C2552F;enable-background:new    ;}
	.st2{fill:#FDDFC3;stroke:#231F20;stroke-width:2;stroke-miterlimit:10;}
	.st3{fill:#FDDFC3;}
	.st4{fill:#231F20;}
	.st5{opacity:0.66;fill:none;stroke:#C38D66;stroke-width:3;stroke-miterlimit:10;enable-background:new    ;}
	.st6{fill:#FDDFC3;stroke:#231F20;stroke-width:3;stroke-miterlimit:10;}
	.st7{fill:none;}
	.st8{fill:none;stroke:#231F20;stroke-miterlimit:10;}
	.st9{fill:#E1C6AD;}
	.st10{opacity:0.71;fill:#E1C6AD;enable-background:new    ;}
	.st11{fill:#F9A22A;stroke:#924B22;stroke-width:2;stroke-linecap:round;stroke-linejoin:round;stroke-miterlimit:10;}
	.st12{opacity:0.82;fill:#C67E2A;stroke:#924D22;stroke-width:2;stroke-miterlimit:10;enable-background:new    ;}
	.st13{fill:#F9A32A;}
	.st14{fill:#924B22;}
	.st15{opacity:0.53;fill:#C67E2A;enable-background:new    ;}
	.st16{fill:#C67E2A;}
	.st17{fill:#0C0D0D;stroke:#231F20;stroke-width:3;stroke-miterlimit:10;}
	.st18{fill:none;stroke:#231F20;stroke-width:3;stroke-miterlimit:10;}
	.st19{fill:#ED9C8A;}
	.st20{fill:#FFFFFF;}
	.st21{fill:#FFDD67;}
	.st22{fill:#EBA352;}
</style>
<g id="Layer_1_1_">
	<g>
		<rect class="st0" width="1110" height="1080"/>
	</g>
	<path class="st1" d="M806,245.1c27.5,26.5,56.4,61.3,79.8,106c12,22.9,18.9,42.6,32.9,81.9c20.1,56.9,30.8,87.7,32.1,129.2
		c1,30.4-3.3,55.4-7.2,71.8l-10,222.7l173.3,159.6l1.1-453.7L806,245.1z"/>
	<polygon class="st2" points="768.3,991 794.1,1078 1109.8,1079.6 1109.8,1017.8 933.1,853.5 926.5,991 	"/>
	<g>
		<path class="st3" d="M675.8,790c-6-9-21.3-13.1-34-8.4c-12.5,4.7-22.3,18-20.1,30.2c2,11,12.7,16.4,23.5,21.8
			c10.3,5.2,30.2,12.1,35.7,5.1c2.3-2.9,0.3-5.8-1.6-18.7C676.4,799.4,679.9,796.1,675.8,790z"/>
		<path class="st4" d="M675.7,790.1c-1.2-1.7-2.6-3.1-4.2-4.4c-0.4-0.3-0.8-0.6-1.3-0.9c-0.4-0.3-0.9-0.5-1.3-0.8
			c-0.5-0.2-0.9-0.5-1.3-0.7l-1.4-0.6c-0.9-0.4-1.9-0.7-2.9-1c-1-0.2-2-0.5-3-0.6l-1.5-0.2l-1.5-0.1c-1-0.1-2-0.1-3-0.1
			c-4,0-7.9,0.8-11.6,2.1c-3.7,1.4-7.1,3.5-10.1,6c-3.1,2.5-5.7,5.6-7.6,9.1c-2,3.5-3.1,7.5-3,11.5c0.2,2,0.4,4,1.2,5.9
			c0.8,1.9,1.8,3.6,3.1,5.1c2.6,3.1,6,5.3,9.6,7.4c3.6,2,7.3,3.7,11,5.4c3.7,1.7,7.5,3.1,11.4,4.3c3.9,1.2,7.8,2.2,11.7,2.5
			c1.9,0.2,3.9,0.2,5.7-0.1c1.8-0.3,3.4-1.1,4.2-2.3c0.4-0.6,0.6-1.1,0.6-2c0-0.8-0.1-1.8-0.3-2.8c-0.3-2-0.8-4-1.1-6.1
			c-0.7-4.1-1.1-8.2-1.3-12.4c-0.2-4.1-0.2-8.3-0.1-12.4c0.1-2.1,0.2-4.1,0.1-6.1C677.6,793.7,676.8,791.8,675.7,790.1z M676,789.9
			c1.2,1.7,1.9,3.7,2.2,5.8c0.2,2.1,0.2,4.1,0.3,6.2c0.1,4.1,0.6,8.2,1.2,12.2c0.6,4,1.4,8,2.2,12c0.4,2,0.9,4,1.3,6
			c0.2,1,0.4,2.1,0.4,3.3c0,0.6,0,1.3-0.2,2c-0.2,0.7-0.5,1.4-0.9,1.9c-0.8,1.1-1.8,1.9-2.9,2.5c-1.1,0.6-2.2,0.9-3.4,1.1
			c-2.3,0.4-4.5,0.3-6.6,0.1c-4.3-0.5-8.3-1.6-12.3-3c-4-1.3-7.8-3-11.5-4.9c-3.7-1.9-7.3-3.9-10.8-6.1c-1.7-1.1-3.5-2.3-5.1-3.7
			c-1.6-1.4-3.1-2.8-4.4-4.4c-1.3-1.7-2.4-3.5-3.2-5.4c-0.8-2-1.2-4.1-1.3-6.1c0-1-0.1-2.1,0-3.2c0.1-0.5,0.1-1.1,0.2-1.6l0.3-1.6
			c0.1-0.5,0.2-1,0.4-1.5l0.4-1.5l0.6-1.5c0.2-0.5,0.4-1,0.6-1.5c1.8-3.8,4.3-7.3,7.5-10.2c0.8-0.7,1.6-1.4,2.5-2
			c0.4-0.3,0.8-0.7,1.3-1l1.4-0.9c0.9-0.6,1.9-1,2.8-1.5c1-0.4,2-0.9,3-1.2c2-0.7,4.1-1.2,6.2-1.4c2.1-0.3,4.3-0.2,6.4-0.1
			c4.2,0.4,8.3,1.5,12.1,3.3c1.9,0.9,3.6,2,5.3,3.3C673.3,786.7,674.8,788.2,676,789.9z"/>
	</g>
	<g>
		<path class="st3" d="M938.3,792.9c1.4-1.8,9.7-12.5,23.2-13.2c17-0.8,32.4,14.9,31.9,28.5c-0.5,13.8-17.2,20.8-35.2,28.5
			c-6.9,2.9-18.2,7.7-22.3,3.5c-3.3-3.4,0.4-9.9,2.2-23.6C939.4,806.6,938.9,798.3,938.3,792.9z"/>
		<path class="st4" d="M938.2,792.8c1.2-1.8,2.4-3.3,3.9-4.8c1.4-1.5,3-2.9,4.6-4.1c1.7-1.2,3.5-2.2,5.4-3.1c1-0.4,1.9-0.8,2.9-1.1
			c0.5-0.2,1-0.3,1.5-0.5l1.5-0.3c4.1-0.8,8.5-0.6,12.6,0.5c4.1,1.1,7.9,3.1,11.2,5.6c3.3,2.6,6.1,5.8,8.2,9.3
			c2.1,3.6,3.6,7.6,3.8,11.7c0.3,4.1-0.9,8.4-3.4,11.7c-2.4,3.4-5.6,6.1-9,8.4c-3.4,2.3-7,4.3-10.6,6.1c-3.6,1.8-7.3,3.5-11,5.1
			c-3.7,1.6-7.4,3.3-11.4,4.6c-2,0.6-4.1,1.1-6.3,1.3c-1.1,0.1-2.2,0.1-3.4-0.1c-1.2-0.2-2.4-0.7-3.5-1.5c-1-0.9-1.8-2.2-2-3.5
			c-0.2-1.3-0.2-2.4-0.1-3.5c0.3-2.2,0.8-4.1,1.2-6.1c1-3.9,1.8-7.8,2.5-11.8c0.6-3.9,1.1-7.9,1.3-11.9c0.1-2,0.2-4,0.2-6
			C938.3,796.9,938.3,795,938.2,792.8z M938.5,792.9c1.4,7.9,1.5,16.2,0.7,24.3c-0.4,4.1-1.2,8.1-2,12.1c-0.4,2-0.8,3.9-1,5.8
			c-0.1,0.9-0.1,1.8,0.1,2.5c0.2,0.7,0.5,1.2,1,1.7c1,0.8,2.8,1.1,4.6,0.9c1.8-0.1,3.7-0.6,5.6-1.1c3.8-1.1,7.5-2.6,11.2-4.2
			c7.5-3.1,15-6,21.9-10c3.4-2.1,6.7-4.5,9.1-7.6c2.4-3.1,3.6-7.1,3.2-11.1c0-0.5-0.1-1-0.2-1.5l-0.3-1.5c-0.3-0.9-0.6-1.9-0.9-2.8
			c-0.4-0.9-0.8-1.8-1.3-2.7c-0.5-0.8-1-1.7-1.6-2.5c-2.2-3.2-5.1-6-8.3-8.2c-3.2-2.3-6.7-4-10.4-5.1c-0.9-0.2-1.9-0.5-2.8-0.7
			c-1-0.1-1.9-0.3-2.9-0.4c-1,0-1.9-0.1-2.9-0.1c-1,0.1-1.9,0.1-2.9,0.3C950.8,782.3,943.7,787,938.5,792.9z"/>
	</g>
	<path class="st5" d="M664,789.7c-23,7-28.4,10.7-28.1,12.8c0.5,3.1,12.8,1.2,23.6,9.9c6.5,5.3,11.5,13.8,9.5,16.3
		c-1.5,1.9-7.6,1.3-27.6-9.2"/>
	<path class="st5" d="M950.7,790.1c23.3-3.1,23-2.4,23.3-1c0.5,2-5.1,4.8-17.6,15.5c-5.2,4.4-15.6,14.6-13.5,18.2
		c1.3,2.3,8.4,2.8,35.3-7.2"/>
	<polygon class="st6" points="666.5,635.5 946.5,635.5 928,992.6 696.7,992.6 	"/>
	<g>
		<path class="st7" d="M859.6,713.4"/>
	</g>
	<g>
		<path class="st7" d="M795.8,688.2"/>
	</g>
	<g>
		<path class="st4" d="M887.2,876.9c-3.2,5.6-7,11-11.2,15.8c-4.3,4.9-9,9.3-14.1,13.2c-5.1,3.9-10.6,7.4-16.3,10.2
			c-5.7,2.9-11.7,5.2-17.8,7.1c6-2.1,11.9-4.7,17.5-7.8c5.6-3.1,10.9-6.7,15.8-10.7c4.9-4,9.4-8.6,13.3-13.5
			c4-4.9,7.4-10.2,10.3-15.8c0.4-0.7,1.3-1,2-0.6C887.4,875.2,887.6,876.1,887.2,876.9C887.3,876.8,887.2,876.9,887.2,876.9z"/>
	</g>
	<line class="st8" x1="803.6" y1="790.5" x2="803.6" y2="846.2"/>
	<line class="st8" x1="824.6" y1="846.2" x2="782.7" y2="846.2"/>
	<g>
		<path class="st7" d="M762.6,721.2"/>
	</g>
	<polygon class="st9" points="954.8,1077.5 794.3,1077 769.9,993.3 928.5,993.3 935.4,856.2 942.8,863.9 938,999 917.3,999 	"/>
	<path class="st10" d="M666.5,634.3h53.3c0,0,36.1,309.9,97,356.7H698.8L666.5,634.3z"/>
	<g>
		<path class="st4" d="M698.9,722.4c5.1-4.7,11.6-8.1,18.5-9.6c3.5-0.8,7.1-0.9,10.7-0.6c3.6,0.3,7.1,1.3,10.4,2.6
			c3.3,1.4,6.4,3.2,9.2,5.5c2.8,2.3,5.3,4.9,7.3,7.8c4.2,5.7,6.7,12.6,7.5,19.5c-2-6.6-5-12.9-9.4-18c-4.3-5.2-9.7-9.4-15.8-11.9
			c-6.1-2.6-12.9-3.4-19.6-2.5C711.2,716.1,704.7,718.7,698.9,722.4z"/>
	</g>
	<polygon class="st11" points="946.5,635.5 986.7,636 939,779.9 	"/>
	<polygon class="st12" points="663.5,635.5 621.6,636 675.7,779.9 	"/>
	<g>
		<path class="st13" d="M720.1,208c-34.1,0.6-60.4,16.8-60.4,16.8c-23.2,14.3-34.7,33.5-43.6,48.6c-18.1,31-22.6,58.9-26.8,87.2
			c-6.6,43.9-4,79.8-1.7,100.6c3.4,30.1,18.2,159.9,78.8,174.4c3.2,0.8,3.7,0.5,9.5,0.2c0.9,0,5.3-0.2,14-0.2
			c51.4-0.3,93.9,0,93.9,0s34.6,0,103.9,0c39.1,0,58.7,0,58.7,0l0,0c6.7-41.7,6.7-41.9,6.7-41.9c2.4-16.2,3.9-48.7-26.8-144.2
			c-12.5-38.7-18.7-58.1-26.8-75.4C892.9,359.9,819.7,206.3,720.1,208z"/>
		<path class="st14" d="M720.2,210.6c-16.3,0.4-32.6,4.1-47.8,10.5c-3.8,1.6-7.5,3.4-11,5.4c-0.4,0.2-0.8,0.5-1.2,0.8l-1.3,0.8
			c-0.9,0.6-1.8,1.1-2.6,1.7c-1.7,1.2-3.4,2.3-5,3.6c-6.5,5-12.3,10.8-17.5,17.2c-5.2,6.4-9.7,13.3-14,20.5
			c-4.3,7.1-8.3,14.4-11.6,22c-6.8,15.1-11.2,31.3-14.2,47.6c-3,16.4-5.6,32.9-6.8,49.6c-1.3,16.6-1.5,33.4-0.6,50
			c0.4,8.3,1.2,16.7,2.1,25c0.9,8.3,2,16.6,3.2,24.9c2.4,16.5,5.6,33,9.8,49.2c4.2,16.2,9.3,32.2,16.4,47.3
			c3.6,7.6,7.6,14.9,12.5,21.7c4.8,6.8,10.5,13.1,17.2,18.1c3.4,2.5,7,4.7,10.8,6.3c1,0.4,1.9,0.8,2.9,1.2c1,0.3,2,0.7,3,1
			c2,0.5,4,1.2,6.1,1.1c2.1-0.1,4.2-0.3,6.3-0.3l6.3-0.1l6.3-0.1l6.3,0l50.2-0.1c66.9-0.2,133.8-0.6,200.7-1.3h0l-1.5,1.3l6.6-41.7
			l0-0.2c1.5-9.8,1.3-19.8,0.4-29.8c-0.9-10-2.6-19.9-4.5-29.7c-4-19.7-9.2-39.1-15-58.4c-5.8-19.3-12.1-38.5-18.4-57.6
			c-3.2-9.5-6.4-19.1-10.1-28.4c-1.8-4.7-3.8-9.3-5.9-13.8c-2.1-4.5-4.4-9-6.7-13.5c-9.2-17.8-19.5-35.1-30.8-51.7
			c-11.3-16.6-23.7-32.4-37.5-46.9c-13.8-14.4-29.2-27.5-46.5-37.4c-8.6-4.9-17.7-8.9-27.2-11.6C739.8,211.7,730,210.4,720.2,210.6z
			 M720.1,205.5c10.4-0.1,20.7,1.3,30.6,4.3c9.9,2.9,19.4,7.1,28.3,12.2c17.8,10.2,33.4,23.7,47.4,38.4c14,14.8,26.5,30.9,37.8,47.6
			c11.4,16.8,21.6,34.3,30.9,52.3c2.3,4.5,4.6,9,6.7,13.7c2.1,4.6,4.1,9.3,5.9,14c3.7,9.5,6.9,19.1,10.1,28.6
			c6.3,19.2,12.5,38.4,18.2,57.8c5.7,19.4,10.9,38.9,14.8,58.8c1.9,9.9,3.5,20,4.4,30.1c0.9,10.1,1.1,20.4-0.5,30.6l0-0.2l-6.8,42.2
			l-0.2,1.3l-1.3,0h0c-66.9-0.8-133.8-1.1-200.7-1.3l-50.2-0.1h-6.3l-6.3,0.1l-6.3,0.1c-2.1,0-4.2,0.2-6.3,0.3
			c-2.1,0.1-4.2-0.5-6.2-1.1c-1-0.3-2-0.7-3-1c-1-0.3-1.9-0.8-2.9-1.2c-3.8-1.7-7.4-3.9-10.8-6.4c-6.7-5-12.3-11.3-17.2-18.2
			c-4.9-6.8-8.9-14.2-12.5-21.7c-3.6-7.6-6.7-15.4-9.4-23.3c-2.7-7.9-5.1-15.9-7.3-24c-4.3-16.2-7.5-32.6-10.1-49.2
			c-1.3-8.3-2.5-16.6-3.5-24.9c-1-8.3-1.9-16.6-2.4-25c-1.1-16.7-1.1-33.5,0-50.2c1-16.8,3.4-33.4,6.1-49.9c2.8-16.5,7-33,13.7-48.5
			c1.7-3.9,3.5-7.7,5.4-11.5c0.9-1.9,2-3.7,3-5.6c1-1.9,2.1-3.7,3.1-5.5c4.2-7.3,8.8-14.4,14.1-21.1c5.3-6.6,11.3-12.8,18-18.1
			c1.6-1.4,3.4-2.6,5.1-3.8c0.9-0.6,1.8-1.2,2.6-1.8l1.3-0.9c0.4-0.3,0.9-0.6,1.4-0.9c3.7-2.2,7.5-4,11.4-5.8
			c7.8-3.4,15.9-6.1,24.2-8.1C703,206.8,711.5,205.6,720.1,205.5z"/>
	</g>
	<path class="st15" d="M655.4,227.9c2.1,1.2-1.5,9.8-6.1,25.8c0,0-4.3,15.1-11.5,56.2c-7.7,44.2-0.6,116.6,15,179.5
		c11.5,46.6,17.2,69.8,32.9,93c14.3,21.2,36.2,43.7,31,50.6c-1.5,1.9-4.2,1.6-14.8,1.3c-21.6-0.6-27.8,0.4-32.6,0
		c-25.7-2.4-48.7-50.3-51.2-55.8c-37-78.9-31.2-160.6-27.8-202.2c4-48.8,12.7-76.8,26.2-101C630.3,250.7,651.5,225.6,655.4,227.9z"
		/>
	<path class="st16" d="M1018.8,195"/>
	<polygon class="st17" points="913.5,786.6 913.5,809.2 890,831.9 848.1,831.9 824.6,809.2 824.6,786.6 	"/>
	<line class="st18" x1="824.6" y1="786.6" x2="782.7" y2="786.6"/>
	<line class="st18" x1="690.5" y1="786.6" x2="672.9" y2="786.6"/>
	<line class="st18" x1="913.5" y1="786.6" x2="936.2" y2="786.6"/>
	<g>
		<path class="st4" d="M838,766.5c6.1-3,12.6-5.3,19.1-7.2c3.2-1,6.5-1.8,10-2.5c1.7-0.3,3.5-0.6,5.3-0.6c1.8-0.1,3.6,0,5.4,0.2
			c7.1,0.8,13.8,3.7,19.5,7.5c5.8,3.7,10.9,8.6,14.6,14.3c-5-4.6-10.4-8.5-16.2-11.7c-5.8-3.2-11.9-5.5-18.3-6.2
			c-3.2-0.4-6.3-0.3-9.5,0.2c-3.2,0.4-6.5,1.2-9.8,1.8C851.2,763.6,844.7,765,838,766.5z"/>
	</g>
	<path class="st8" d="M1529.5,951"/>
	<path class="st18" d="M698.9,786.6"/>
	<path class="st18" d="M782.7,786.6"/>
	<polygon class="st17" points="782.7,786.6 782.7,812.6 765.4,831.9 712.3,831.9 690.5,812.6 690.5,786.6 	"/>
	<path class="st18" d="M541.3,602.1"/>
	<g>
		<path class="st14" d="M655.8,230.1c-1,4-2.2,8-3.1,12.1l-1.5,6l-1.4,6.1c-1.8,8.1-3.5,16.2-4.9,24.4c-3.3,16.2-5.8,32.6-7.3,49.1
			c-3,33-2.9,66.4,2.8,99c2.8,16.3,6.9,32.4,11.1,48.5c4.3,16.1,8.4,32.1,13.3,48c4.9,15.8,10.6,31.4,17.6,46.4
			c6.5,15.2,14.1,30,22.5,44.4c-4.7-6.9-9.1-13.9-13.3-21.1c-4.2-7.2-8.2-14.5-11.9-22c-7.1-15.1-12.9-30.8-17.8-46.7
			c-4.9-15.9-9-32-13.3-48.1c-4.2-16.1-8.3-32.3-11.1-48.7c-2.8-16.5-4.4-33.1-4.7-49.8c-0.3-16.7,0.3-33.4,1.9-50
			c0.8-8.3,1.8-16.6,3-24.8l1-6.2l1.1-6.2c0.3-2.1,0.8-4.1,1.1-6.2c0.4-2,0.7-4.1,1.2-6.1c1.9-8.1,4-16.2,6.3-24.2
			C650.4,245.9,653,237.9,655.8,230.1z"/>
	</g>
	<g>
		<path class="st14" d="M753.3,212.6c-1.7,4.1-3.4,8.1-5,12.3c-1.6,4.1-3.1,8.2-4.6,12.4c-2.9,8.3-5.5,16.7-7.8,25.2
			c-1.2,4.2-2.5,8.4-3.6,12.7l-1.6,6.4l-0.8,3.2l-0.7,3.2c-1.9,8.6-3.4,17.2-4.6,25.9c-1.2,8.7-2,17.5-2.6,26.2
			c-0.5,8.8-0.8,17.6-0.8,26.4c0,8.8,0.2,17.6,0.4,26.4c0.3,8.8,0.6,17.6,1,26.4c0.5,8.8,1.1,17.6,1.9,26.3
			c0.8,8.8,1.8,17.5,2.9,26.3c2.2,17.5,5.2,34.8,8.5,52.2c3.3,17.3,7,34.5,11.3,51.6c1.9,8.6,3.9,17.2,6.1,25.7
			c2.2,8.5,4.4,17.1,6.8,25.6c-5.9-16.7-11-33.6-15.8-50.6c-4.3-17.2-8.1-34.4-11.3-51.8c-3.3-17.4-6.3-34.8-8.5-52.3
			c-1.1-8.8-2.1-17.6-2.9-26.4c-0.8-8.8-1.4-17.6-1.9-26.5c-0.4-8.8-0.8-17.7-1-26.5c-0.3-8.8-0.4-17.7-0.4-26.5
			c0-8.8,0.3-17.7,0.8-26.5c0.5-8.8,1.4-17.7,2.6-26.5c1.2-8.8,2.7-17.5,4.7-26.2c1.9-8.7,4.1-17.3,6.6-25.7
			c2.8-8.4,5.8-16.7,9.2-24.9c1.7-4.1,3.5-8.1,5.3-12.2C749.3,220.5,751.3,216.5,753.3,212.6z"/>
	</g>
	<g>
		<path class="st14" d="M875.6,358.2c1,2.6,2,5.3,3,8c0.9,2.7,1.9,5.3,2.8,8c1.8,5.4,3.5,10.8,5.1,16.2c2.7,11,5.2,22.1,7.2,33.3
			c1,5.6,1.9,11.2,2.7,16.8c0.4,2.8,0.8,5.6,1.1,8.4l1.1,8.4c1.1,11.3,2.2,22.6,2.6,33.9c1,22.7,0.4,45.4-1.6,68
			c-1,11.3-2.4,22.6-4.2,33.8c-2.2,11.1-4.7,22.2-7.8,33.1l1.4-8.4l1.3-8.4c0.8-5.6,1.5-11.2,2.2-16.8c1.7-11.1,3.1-22.3,4.1-33.6
			c2-22.5,2.6-45.1,1.6-67.6c-0.4-11.3-1.4-22.5-2.6-33.7l-1.1-8.4c-0.4-2.8-0.7-5.6-1.1-8.4c-0.8-5.6-1.7-11.1-2.7-16.7
			c-2-11.1-4.4-22.1-7.1-33.1c-1.2-5.5-2.4-11-3.7-16.5c-0.7-2.7-1.4-5.5-2.1-8.2C877.1,363.7,876.4,360.9,875.6,358.2z"/>
	</g>
</g>
<g id="Layer_2_1_">
	<path class="st19" d="M541,615v-94.3c0-35.7-29-64.7-64.7-64.7H209.7c-35.7,0-64.7,29-64.7,64.7v122.7c0,35.7,29,64.7,64.7,64.7
		h323.4c4.4,0,7.9-3.5,7.9-7.9V689l32.5-36.4C557.2,633.9,541,615,541,615z M228.8,616.3c0,0.6-0.4,1.2-0.9,1.6
		c-0.4,0.4-0.7,0.9-0.9,1.5c-0.2,0.4,0.7,0.4,0.2,0.8c-0.6,0.5-1.1,1.1-1.8,1.3c-0.5,0.1-0.9,0.4-1.4,0.7c-1.1-0.6-1.4-1.5-1.2-2.7
		c0.1-0.2,0.1-0.5,0.1-0.6c-0.4-2-0.3-4.1-0.3-6.1c0.1-1.2-0.3-2.4-0.2-3.7c0-1.3-0.1-2.5-0.2-3.8c-0.1-0.6-0.2-1.4,0.4-2
		c0.1-0.1,0.1-0.4,0.1-0.4c-0.9-0.7-0.4-1.5-0.5-2.2c-0.1-0.4-0.2-0.6-0.6-0.6c-0.6,0-1.3,0-1.9,0.1c-2.4,0.1-4.8-0.1-7.3,0.3
		c-0.2,0-0.4,0.1-0.7,0.1c-0.3,0.6-0.1,1.2,0,1.9c0,0.8,0.3,1.5,0,2.4c-0.1,0.2,0,0.4,0.1,0.6c0.2,0.8,0.2,1.4,0,2.4
		c-0.3,1.7-0.3,2.7-0.3,4c0,1.1,0.1,1.8,0.1,2.9c-0.1,0.6-0.2,1.7-0.1,2.1c0.4,0.9,0,1.7,0.1,2.6c0.1,0.4-0.2,0.6-0.6,0.6
		c-1.4,0.1-3.9,1.1-4.3-0.1c-0.1-0.2-0.4-0.1-0.7,0.5c-0.4,1-1.9,0.6-3,0.7c-0.3-0.4-0.4-0.9-0.4-1.4c0-2-0.2-4-0.3-5.9
		c-0.1-1.4,0.1-2.9,0.1-4.2c-0.1-2.2,0-5.1,0-7.4c0-0.7-0.1-0.7-0.9-0.9c-0.8-0.3-1.7-0.1-2.2-1c0.6-0.4,1.3-0.5,1.9-0.6
		c0.9-0.3,1.1-0.7,1.1-1.6c-0.3-3.2-0.4-6.2-0.3-9.4c0-4.7,0.1-9.4,0-14.1c0-0.5,0.1-1-0.2-1.4c-0.3-0.7-0.1-1.3,0.1-2
		c0.2-0.4,0.4-0.6,0.7-0.6c1.1-0.1,2.3-0.1,3.2,0.8c0.2,0.2,0.2,0.2,0.4,0.2c1.1-0.2,1.8,0.6,2.6,1c0.6,0.3,0.9,0.9,1,1.7
		c0.1,1.5,0.1,3,0,4.4v0.4c0.2,2.6-0.1,5.3,0.4,7.9c0.6,3.2,0.9,6.5,1,9.8c0,0.2,0,0.5,0.3,0.9c1.6-0.2,3.2-0.5,4.9-0.8
		c0.1,0,0.1,0,0.1-0.1c0.9-1.2,2.2-0.6,3.3-0.9h0.6c1.4-0.1,1.2-0.2,1.6-1.5c0.4-1.6-0.1-3.1,0-4.7c0.5-5,0.1-9.9,0.2-15
		c0-0.6-0.1-1.2-0.2-1.9c-0.1-0.4,0-0.9,0.4-1.1c0.7-0.2,0.8-0.9,1.5-0.9c0.6,0.1,0.7,0.6,0.8,1c0.3,1.1,0.4,2.3,0.4,3.5
		c0,0.5,0,1,0.1,1.4c0.2,1.7,0.4,3.3,0.4,5c0.1,1.7,0,3.3,0.2,5c0,0.1,0.1,0.3,0.5,0.4c0.1-4-0.2-11.7-0.2-12.5
		c0-1.7,1.3,1.9,1.3,3.2c0.1,2.7,0.2,5.3,0.5,7.8c0,0.6-0.1,2.4-0.1,3c0.1,2.5-0.1,5,0.2,7.6c0.1,1.7,0.2,3.2-0.1,4.9
		c-0.1,0.4,0.2,0.9,0.3,1.3c0.3,1.9,0.5,4,0.3,5.9v0.8c0.4,1.5,0.4,3.1,0.4,4.7C228.9,614.4,228.7,615.4,228.8,616.3z M297.3,614.3
		c-0.2,0.1-0.4,0.4-0.6,0.5c-1.4,0.9-1.5,1.7-2.9,2.6c-0.7,0.7-2.5,2.7-3.5,3.2c-0.4,0.2-0.6,0.3-0.9,0.5c-0.4,0.8-1.4,1-2.4,1
		c-0.5,0.5-1.1,0.6-1.8,0.4c-1.3-0.3-2.5-0.9-3.5-1.6c-1.4-1-3-1.9-4-3.4c-1-1.3-1.4-2.9-1.8-4.5c-0.1-0.9-0.3-1.9-0.7-2.7
		c-0.3,0.4-0.6,0.9-0.8,1.2c-0.7,1.3-1.4,3.5-2.2,4.4c-1.3,1.8-1.4,2.7-2.7,4c-0.3,0.3-0.6,0.3-0.5,0.6c0,0.4-0.9,0.5-1.1,0.7
		c-1.8,0.7-2.6,1-4.2-0.3l-1.1-0.9c-0.4-0.4-0.8-0.7-1.6-0.7c0.9,0.7,1.3,1.7,2.2,2.2c-0.4,0.4-1.2,0.3-1.4,0.1
		c-0.6-0.6-1.3-1.1-1.8-1.8c-1.3-1.7-1.9-3.6-2.1-5.7c-0.1,0.1-0.3,0.3-0.4,0.5c-0.7,0.7-3.5,2.5-3.7,2.6c-1.6,0.8-0.9,0.4-2.4,1.4
		c-0.4,0.2-1.4,0.8-1.8,1.1c-1.1,0.8-2.4,0.8-3,1.2c-1.4,1-3.5,1-5.2,1.1c-1,0-2.3-0.4-3.2-1.3c-1.7-1.7-3-3.2-3.7-5.4
		c-0.1-0.3-0.1-0.5-0.2-0.7c-0.3-1.1-0.6-1.7-0.6-2.8c0-0.6-0.1-2.6-0.2-3.8c-0.1-2.2,0.2-5.7,0.7-7.9c0.6-2.6,1.2-5.2,2.8-7.3
		c0.9-1.2,2-1.9,3.5-2.2c0.2,0,0.9-0.2,1.1,0.1c-0.1,0.5-1.4,0.4-1.5,0.9c0.3,0.3,0.6,0.2,0.9-0.1c1.6-0.9,2.8-1.2,4.8-0.5
		c0.4,0.1,0.8,0.3,1.1,0.4c0.7,0.4,0.9,0.4,1.4,0.7l0.8,0.5c1,0.7,2.4,3.6,2.6,5.9c0.1,1.7,0,2.9-0.6,4.6c-0.3,0.7-0.4,1.6-1.4,1.9
		c-0.3,0.1-0.3,0.3-0.4,0.5c-1.2,0.6-1.7,1.4-3.4,2c-0.8,0.3-1.4,0.7-2.2,1c-1,0.4-1.8,1-3,1.7c0.6,1.7,0.9,3.2,1.8,4.6
		c0.6,0.8,1.1,0.9,1.7,1.7c0.8,1.1,1.5,1.3,2.7,0.9c3.6-1.4,4.8-1.2,8.1-3.4c1.1-0.7,1.1-1,2.4-1.4c0.1-0.1,0.3-0.1,0.4-0.2
		c-0.2-3.5-0.2-7-0.3-10.5c-0.1-4.9-0.3-9.8-0.2-14.7c0-2.6-0.2-5.2,0-7.8c0.1-0.6,0.1-1.2,0.2-1.7c0-0.4,0-0.9,0.3-1.3
		c0.4-0.3,0.8,0,1.2-0.1c0.6-0.2,1.1-0.6,1.7-0.9c1.3-0.9,2.7-0.5,3.2,1c0.2,0.5,0.7,1,0.3,1.7c-0.1,0.1,0,0.4,0.1,0.6
		c0.9,1.4,1.1,3,1.2,4.6c0.2,4,0.5,8.1,0.4,12.2c0,1-0.1,2-0.1,3.1c0,2.3,0.1,4.7,0.3,7.1c0.1,0.9,0,1.9-0.1,2.8
		c-0.2,1.9,0.1,3.8-0.3,5.7c-0.1,1.1,0.5,1.9,1,2.8c0.2,0.5,0.6,0.3,1,0.2c1.4-0.2,2-1.2,2.7-2.3c1.9-2.9,3.1-6,4-7.2
		c0.4-0.4,0.6-1.2,0.5-1.9c-0.3-1.5-0.1-2.3-0.2-3.8c-0.3-2.7-0.4-4.2-0.2-6.3c0.3-3.8,0-7.3,0.2-11.1c0.1-2.5,0.1-5-0.1-7.6
		c0-0.6,0.3-1.2,0.3-1.7c0-0.6,0.2-0.9,0.7-1.3c0.7-0.5,0.8-1.4,1.4-1.9c1.3-0.9,2.7-1.4,4.2-1.3c0.4,0,0.9-0.1,1.3-0.1
		c0.9-0.1,2.1,0.4,2.4,1.1c0.4,1.2,1.1,2.1,1.4,3.2c0.7,2.4,0.9,4.8,0.7,7.4c-0.2,1.2-0.4,2.5-0.6,3.7c-0.1,0.7,0,1.2-0.4,1.8
		c-0.5,0.9-0.6,2.1-0.8,3.1c-0.4,1.6-1.1,2.8-1.3,4.5c-0.1,1.1-1.2,2.2-1.5,3.4c-0.1,0.3-0.1,1.6-0.1,1.9c0.1,1.1,0.4,1.6,0.3,2
		c-0.4,2-0.1,4-0.2,5.9c-0.2,3.2,0.5,6.3,1.4,9.4c0.2,0.7,0.4,1.4,1.3,1.1c0.4,0,0.6,0.2,0.9,0.4c0.8,0.6,1.6,0.6,2.4,0.1
		c1.3-0.6,1.6-0.7,2.7-1.8c0.7-0.6,1.4-1.2,3.5-3c0.9-0.7,1.9-1.2,3-1.5C297.6,613.7,297.5,614,297.3,614.3z M322.2,622.3
		c-0.3,0-0.6-0.1-0.9-0.2c0.2-0.4,0.4-0.4,0.7-0.6c0.4-0.1,0.6-0.2,0.6,0.1C322.7,622,322.5,622.2,322.2,622.3z M329.7,610.2
		c-0.3,0.5-0.4,1.2-0.4,1.8c0.1,1.7-0.5,3-1.3,4.4c-0.6,1.2-1.3,2.3-2,3.5c-0.6,0.9-1.6,1.2-2.5,1.5c-1.2-1.2,0.6-1.1,0.7-1.8
		c-0.4-0.2-0.9,0.1-1.1,0.2c-1.2,0.7-2.4,1.1-3.6,1.7c-0.9,0.5-1.9,0.5-2.9-0.1c-1.5-0.9-2.9-2-4.2-3.1c-1.5-1.4-2.5-3.3-3.1-5.4
		c-0.7-2.8-0.5-5.5-0.4-8.3c0-2.7,0.6-5.3,1.4-7.8c0.9-2.7,2.3-4.8,5-5.8c0.6-0.2,1.1-0.6,1.6-0.9c0.6-0.3,1.1-0.3,1.7,0.1
		c0,0.4-0.4,0.6-0.4,1c0.6,0.1,1.3,0.6,1.4-0.6c0-0.2,0.3-0.1,0.4-0.2c2.1-0.2,3.7,0.7,5.4,1.8c0.1,0,0.2,0.2,0.2,0.3
		c0.5,1.2,1.4,2.1,2.3,3.1c0.9,1.1,1,2.6,1.4,3.9c0.1,0.7,0.2,1.4,0.3,2.1c0,1.5,0.4,3,0.6,4.5C330.2,607.6,330.5,609,329.7,610.2z
		 M359,620.1c-1.3,0.4-2.4,1.8-3.8,1.3c-0.8,0-1.6,0.4-2.1-0.1c-0.5-0.4-0.4-1.3-0.5-1.9c-0.1-0.4-0.2-0.7-0.3-1.1
		c-0.2-0.9,0-1.7,0.6-2.2c0.9-0.8,1.7-1.4,2.7-1.9c0.4-0.2,0.6-0.1,1,0.1c1.2,0.6,1.9,1.4,2.8,2.5c0.1,0.1,0.3,0.3,0.2,0.6
		c-0.2,0.5-0.1,0.9,0,1.4C359.8,619.4,359.5,619.9,359,620.1z M359.5,579.1c-0.4,2.4-0.7,5.6-0.7,8.1c0.1,1.9,0,3.7,0.1,5.5
		c0,0.5-0.1,1-0.2,1.5c-0.3,1.9-0.4,3.7-0.2,5.6c0.2,2-0.3,4-0.7,5.9c-0.1,0.8-0.2,1.7-0.7,2.5c-0.1,0.3-0.2,0.6-0.7,0.4
		c-0.4-0.1-0.4,0.5-0.7,0.8c-0.4,0.4-0.8-0.7-0.8-1.3c0-0.2-0.1-0.4-0.3-0.4c-0.6,0.4-0.6-0.1-0.7-0.4c-0.1-0.6-0.4-1.1-0.7-1.6
		c-0.6-1-0.7-2.2-0.6-3.4c0-0.2,0-0.4,0.1-0.6c-0.1-1,0-2.1-0.7-3.1c-0.7-1.1-0.3-2.2-0.3-3.3c-0.1-2.4-0.4-5-0.5-7.5
		c-0.1-1.4,0.1-2.9-0.3-4.2c-0.2-0.4-0.2-0.9-0.2-1.4l-0.2-3.8c-0.1-1.6,0.3-3.2,0.1-4.9c-0.1-1,1.3-1.4,1.6-2.4
		c0.2-0.8,1-0.7,1.2-0.1c0.4,2.2,1.4,2.1,1-0.7c-0.2-1.5,1-1.4,2.1-1.3c1.2,0.2,2.5,0.8,2.9,2.4C359.7,574,360,576.5,359.5,579.1z
		 M373.4,620.1c-1.3,0.4-2.4,1.8-3.8,1.3c-0.8,0-1.6,0.4-2.1-0.1c-0.5-0.4-0.4-1.3-0.5-1.9c-0.1-0.4-0.2-0.7-0.3-1.1
		c-0.2-0.9,0-1.7,0.7-2.2c0.9-0.8,1.7-1.4,2.7-1.9c0.4-0.2,0.7-0.1,1,0.1c1.2,0.6,1.9,1.4,2.8,2.5c0.1,0.1,0.3,0.3,0.2,0.6
		c-0.2,0.5-0.1,0.9,0,1.4C374.2,619.4,373.9,619.9,373.4,620.1z M373.9,579.1c-0.4,2.4-0.7,5.6-0.7,8.1c0.1,1.9,0,3.7,0.1,5.5
		c0,0.5-0.1,1-0.2,1.5c-0.3,1.9-0.4,3.7-0.2,5.6c0.2,2-0.3,4-0.6,5.9c-0.1,0.8-0.2,1.7-0.7,2.5c-0.1,0.3-0.2,0.6-0.7,0.4
		c-0.4-0.1-0.4,0.5-0.7,0.8c-0.4,0.4-0.8-0.7-0.8-1.3c0-0.2-0.1-0.4-0.3-0.4c-0.6,0.4-0.6-0.1-0.7-0.4c-0.1-0.6-0.4-1.1-0.7-1.6
		c-0.6-1-0.7-2.2-0.6-3.4c0-0.2,0-0.4,0.1-0.6c-0.1-1,0-2.1-0.7-3.1c-0.7-1.1-0.3-2.2-0.3-3.3c-0.1-2.4-0.4-5-0.5-7.5
		c-0.1-1.4,0.1-2.9-0.4-4.2c-0.1-0.4-0.1-0.9-0.1-1.4l-0.2-3.8c-0.1-1.6,0.3-3.2,0.1-4.9c-0.2-1,1.3-1.4,1.6-2.4
		c0.2-0.8,1-0.7,1.1-0.1c0.4,2.2,1.4,2.1,1-0.7c-0.2-1.5,1-1.4,2.1-1.3c1.1,0.2,2.5,0.8,2.9,2.4C374.1,574,374.4,576.5,373.9,579.1z
		 M387.8,620.1c-1.3,0.4-2.4,1.8-3.8,1.3c-0.8,0-1.6,0.4-2.1-0.1c-0.5-0.4-0.4-1.3-0.5-1.9c-0.1-0.4-0.2-0.7-0.3-1.1
		c-0.2-0.9,0-1.7,0.6-2.2c0.9-0.8,1.7-1.4,2.7-1.9c0.4-0.2,0.6-0.1,1,0.1c1.2,0.6,1.9,1.4,2.8,2.5c0.1,0.1,0.3,0.3,0.2,0.6
		c-0.2,0.5-0.1,0.9,0,1.4C388.6,619.4,388.3,619.9,387.8,620.1z M388.3,579.1c-0.4,2.4-0.7,5.6-0.7,8.1c0.1,1.9,0,3.7,0.1,5.5
		c0,0.5-0.1,1-0.2,1.5c-0.3,1.9-0.4,3.7-0.2,5.6c0.2,2-0.3,4-0.7,5.9c-0.1,0.8-0.2,1.7-0.7,2.5c-0.1,0.3-0.2,0.6-0.7,0.4
		c-0.4-0.1-0.4,0.5-0.6,0.8c-0.4,0.4-0.8-0.7-0.8-1.3c0-0.2-0.1-0.4-0.3-0.4c-0.7,0.4-0.7-0.1-0.7-0.4c-0.1-0.6-0.4-1.1-0.7-1.6
		c-0.7-1-0.7-2.2-0.7-3.4c0-0.2,0-0.4,0.1-0.6c-0.1-1,0-2.1-0.7-3.1c-0.7-1.1-0.3-2.2-0.3-3.3c-0.1-2.4-0.4-5-0.5-7.5
		c-0.1-1.4,0.1-2.9-0.4-4.2c-0.1-0.4-0.1-0.9-0.1-1.4l-0.2-3.8c-0.1-1.6,0.3-3.2,0.1-4.9c-0.2-1,1.3-1.4,1.6-2.4
		c0.2-0.8,1-0.7,1.2-0.1c0.4,2.2,1.4,2.1,1-0.7c-0.2-1.5,1-1.4,2.1-1.3c1.2,0.2,2.5,0.8,2.9,2.4C388.5,574,388.8,576.5,388.3,579.1z
		 M467.7,604.3c-3,3.7-6.3,6.7-7.9,10.6c-0.8,1.9-1.8,3.6-2.9,5.2c-0.4,0.5-0.8,1-1.2,1.4c-4.7,5.5-11.4,7.9-17.7,7.8
		c-0.4,0-0.8,0-1.2,0c-0.4,0-0.8,0-1.2-0.1c-0.2,0-0.5,0-0.7-0.1c-0.2,0-0.4,0-0.6-0.1c0,0-0.1,0-0.1,0c-0.3,0-0.5-0.1-0.8-0.1
		c-0.7-0.1-1.3-0.3-2-0.4c-0.2-0.1-0.4-0.1-0.6-0.2c-0.3-0.1-0.7-0.2-1-0.3c-0.2-0.1-0.4-0.1-0.6-0.2c-0.3-0.1-0.6-0.2-0.9-0.4
		c-0.2-0.1-0.4-0.2-0.6-0.3c-0.7-0.3-1.3-0.7-1.9-1c-0.3-0.2-0.6-0.4-0.9-0.6c-0.4-0.2-0.7-0.5-1-0.8c-0.2-0.1-0.3-0.2-0.4-0.4
		c-0.2-0.2-0.4-0.4-0.6-0.5c-0.2-0.2-0.3-0.3-0.5-0.5c-0.1,0-0.1-0.1-0.2-0.2c-0.8-0.9-1.5-2-2-3.1c-3.4-7.9-1.3-22.3-1.3-22.3
		l-5.8-19.7c-0.6-2.1,0.3-4.3,2.2-5.2c0.2-0.1,0.5-0.2,0.8-0.3c2.4-0.6,4.9,0.8,5.6,3.2l-1.6-5.2c-0.7-2.5,0.6-5,2.9-5.8
		c0.1,0,0.3-0.1,0.4-0.1l0,0c2.6-0.7,5.4,0.9,6.1,3.5l7,23.4l5.9-25.3c0.7-3,3.5-4.9,6.4-4.2c2.8,0.7,4.5,3.7,3.8,6.7l-0.7,3.2
		c0.6-2.4,2.7-3.9,5-3.6c0.1,0,0.3,0,0.4,0.1h0c0.8,0.2,1.4,0.6,2,1.1c0.4,0.3,0.7,0.7,0.9,1.2c0.5,1,0.7,2.1,0.4,3.3l-6.4,27.5
		l0,0.1c3.1-0.3,4.9-2,8.4-5.9c4.6-5.1,9.1-6.2,11.6-4.6c0.2,0.1,0.3,0.2,0.4,0.3c0.1,0.1,0.2,0.2,0.4,0.3c0,0,0,0.1,0.1,0.1
		c0.1,0.1,0.2,0.2,0.3,0.3c0.1,0.1,0.2,0.3,0.3,0.5C477.4,596.3,471.3,599.8,467.7,604.3z"/>
	<path class="st19" d="M228.8,616.3c0,0.6-0.4,1.2-0.9,1.6c-0.4,0.4-0.7,0.9-0.9,1.5c-0.2,0.4,0.7,0.4,0.2,0.8
		c-0.6,0.5-1.1,1.1-1.8,1.3c-0.5,0.1-0.9,0.4-1.4,0.7c-1.1-0.6-1.4-1.5-1.2-2.7c0.1-0.2,0.1-0.5,0.1-0.6c-0.4-2-0.3-4.1-0.3-6.1
		c0.1-1.2-0.3-2.4-0.2-3.7c0-1.3-0.1-2.5-0.2-3.8c-0.1-0.6-0.2-1.4,0.4-2c0.1-0.1,0.1-0.4,0.1-0.4c-0.9-0.7-0.4-1.5-0.5-2.2
		c-0.1-0.4-0.2-0.6-0.6-0.6c-0.6,0-1.3,0-1.9,0.1c-2.4,0.1-4.8-0.1-7.3,0.3c-0.2,0-0.4,0.1-0.7,0.1c-0.3,0.6-0.1,1.2,0,1.9
		c0,0.8,0.3,1.5,0,2.4c-0.1,0.2,0,0.4,0.1,0.6c0.2,0.8,0.2,1.4,0,2.4c-0.3,1.7-0.3,2.7-0.3,4c0,1.1,0.1,1.8,0.1,2.9
		c-0.1,0.6-0.2,1.7-0.1,2.1c0.4,0.9,0,1.7,0.1,2.6c0.1,0.4-0.2,0.6-0.6,0.6c-1.4,0.1-3.9,1.1-4.3-0.1c-0.1-0.2-0.4-0.1-0.7,0.5
		c-0.4,1-1.9,0.6-3,0.7c-0.3-0.4-0.4-0.9-0.4-1.4c0-2-0.2-4-0.3-5.9c-0.1-1.4,0.1-2.9,0.1-4.2c-0.1-2.2,0-5.1,0-7.4
		c0-0.7-0.1-0.7-0.9-0.9c-0.8-0.3-1.7-0.1-2.2-1c0.6-0.4,1.3-0.5,1.9-0.6c0.9-0.3,1.1-0.7,1.1-1.6c-0.3-3.2-0.4-6.2-0.3-9.4
		c0-4.7,0.1-9.4,0-14.1c0-0.5,0.1-1-0.2-1.4c-0.3-0.7-0.1-1.3,0.1-2c0.2-0.4,0.4-0.6,0.7-0.6c1.1-0.1,2.3-0.1,3.2,0.8
		c0.2,0.2,0.2,0.2,0.4,0.2c1.1-0.2,1.8,0.6,2.6,1c0.6,0.3,0.9,0.9,1,1.7c0.1,1.5,0.1,3,0,4.4v0.4c0.2,2.6-0.1,5.3,0.4,7.9
		c0.6,3.2,0.9,6.5,1,9.8c0,0.2,0,0.5,0.3,0.9c1.6-0.2,3.2-0.5,4.9-0.8c0.1,0,0.1,0,0.1-0.1c0.9-1.2,2.2-0.6,3.3-0.9h0.6
		c1.4-0.1,1.2-0.2,1.6-1.5c0.4-1.6-0.1-3.1,0-4.7c0.5-5,0.1-9.9,0.2-15c0-0.6-0.1-1.2-0.2-1.9c-0.1-0.4,0-0.9,0.4-1.1
		c0.7-0.2,0.8-0.9,1.5-0.9c0.6,0.1,0.7,0.6,0.8,1c0.3,1.1,0.4,2.3,0.4,3.5c0,0.5,0,1,0.1,1.4c0.2,1.7,0.4,3.3,0.4,5
		c0.1,1.7,0,3.3,0.2,5c0,0.1,0.1,0.3,0.5,0.4c0.1-4-0.2-11.7-0.2-12.5c0-1.7,1.3,1.9,1.3,3.2c0.1,2.7,0.2,5.3,0.5,7.8
		c0,0.6-0.1,2.4-0.1,3c0.1,2.5-0.1,5,0.2,7.6c0.1,1.7,0.2,3.2-0.1,4.9c-0.1,0.4,0.2,0.9,0.3,1.3c0.3,1.9,0.5,4,0.3,5.9v0.8
		c0.4,1.5,0.4,3.1,0.4,4.7C228.9,614.4,228.7,615.4,228.8,616.3z"/>
	<path class="st19" d="M297.3,613.3c0.3,0.4,0.2,0.7,0,0.9c-0.2,0.1-0.4,0.4-0.6,0.5c-1.4,0.9-1.5,1.7-2.9,2.6
		c-0.7,0.7-2.5,2.7-3.5,3.2c-0.4,0.2-0.6,0.3-0.9,0.5c-0.4,0.8-1.4,1-2.4,1c-0.5,0.5-1.1,0.6-1.8,0.4c-1.3-0.3-2.5-0.9-3.5-1.6
		c-1.4-1-3-1.9-4-3.4c-1-1.3-1.4-2.9-1.8-4.5c-0.1-0.9-0.3-1.9-0.7-2.7c-0.3,0.4-0.6,0.9-0.8,1.2c-0.7,1.3-1.4,3.5-2.2,4.4
		c-1.3,1.8-1.4,2.7-2.7,4c-0.3,0.3-0.6,0.3-0.5,0.6c0,0.4-0.9,0.5-1.1,0.7c-1.8,0.7-2.6,1-4.2-0.3l-1.1-0.9
		c-0.4-0.4-0.8-0.7-1.6-0.7c0.9,0.7,1.3,1.7,2.2,2.2c-0.4,0.4-1.2,0.3-1.4,0.1c-0.6-0.6-1.3-1.1-1.8-1.8c-1.3-1.7-1.9-3.6-2.1-5.7
		c-0.1,0.1-0.3,0.3-0.4,0.5c-0.7,0.7-3.5,2.5-3.7,2.6c-1.6,0.8-0.9,0.4-2.4,1.4c-0.4,0.2-1.4,0.8-1.8,1.1c-1.1,0.8-2.4,0.8-3,1.2
		c-1.4,1-3.5,1-5.2,1.1c-1,0-2.3-0.4-3.2-1.3c-1.7-1.7-3-3.2-3.7-5.4c-0.1-0.3-0.1-0.5-0.2-0.7c-0.3-1.1-0.6-1.7-0.6-2.8
		c0-0.6-0.1-2.6-0.2-3.8c-0.1-2.2,0.2-5.7,0.7-7.9c0.6-2.6,1.2-5.2,2.8-7.3c0.9-1.2,2-1.9,3.5-2.2c0.2,0,0.9-0.2,1.1,0.1
		c-0.1,0.5-1.4,0.4-1.5,0.9c0.3,0.3,0.6,0.2,0.9-0.1c1.6-0.9,2.8-1.2,4.8-0.5c0.4,0.1,0.8,0.3,1.1,0.4c0.7,0.4,0.9,0.4,1.4,0.7
		l0.8,0.5c1,0.7,2.4,3.6,2.6,5.9c0.1,1.7,0,2.9-0.6,4.6c-0.3,0.7-0.4,1.6-1.4,1.9c-0.3,0.1-0.3,0.3-0.4,0.5c-1.2,0.6-1.7,1.4-3.4,2
		c-0.8,0.3-1.4,0.7-2.2,1c-1,0.4-1.8,1-3,1.7c0.6,1.7,0.9,3.2,1.8,4.6c0.6,0.8,1.1,0.9,1.7,1.7c0.8,1.1,1.5,1.3,2.7,0.9
		c3.6-1.4,4.8-1.2,8.1-3.4c1.1-0.7,1.1-1,2.4-1.4c0.1-0.1,0.3-0.1,0.4-0.2c-0.2-3.5-0.2-7-0.3-10.5c-0.1-4.9-0.3-9.8-0.2-14.7
		c0-2.6-0.2-5.2,0-7.8c0.1-0.6,0.1-1.2,0.2-1.7c0-0.4,0-0.9,0.3-1.3c0.4-0.3,0.8,0,1.2-0.1c0.6-0.2,1.1-0.6,1.7-0.9
		c1.3-0.9,2.7-0.5,3.2,1c0.2,0.5,0.7,1,0.3,1.7c-0.1,0.1,0,0.4,0.1,0.6c0.9,1.4,1.1,3,1.2,4.6c0.2,4,0.5,8.1,0.4,12.2
		c0,1-0.1,2-0.1,3.1c0,2.3,0.1,4.7,0.3,7.1c0.1,0.9,0,1.9-0.1,2.8c-0.2,1.9,0.1,3.8-0.3,5.7c-0.1,1.1,0.5,1.9,1,2.8
		c0.2,0.5,0.6,0.3,1,0.2c1.4-0.2,2-1.2,2.7-2.3c1.9-2.9,3.1-6,4-7.2c0.4-0.4,0.6-1.2,0.5-1.9c-0.3-1.5-0.1-2.3-0.2-3.8
		c-0.3-2.7-0.4-4.2-0.2-6.3c0.3-3.8,0-7.3,0.2-11.1c0.1-2.5,0.1-5-0.1-7.6c0-0.6,0.3-1.2,0.3-1.7c0-0.6,0.2-0.9,0.7-1.3
		c0.7-0.5,0.8-1.4,1.4-1.9c1.3-0.9,2.7-1.4,4.2-1.3c0.4,0,0.9-0.1,1.3-0.1c0.9-0.1,2.1,0.4,2.4,1.1c0.4,1.2,1.1,2.1,1.4,3.2
		c0.7,2.4,0.9,4.8,0.7,7.4c-0.2,1.2-0.4,2.5-0.6,3.7c-0.1,0.7,0,1.2-0.4,1.8c-0.5,0.9-0.6,2.1-0.8,3.1c-0.4,1.6-1.1,2.8-1.3,4.5
		c-0.1,1.1-1.2,2.2-1.5,3.4c-0.1,0.3-0.1,1.6-0.1,1.9c0.1,1.1,0.4,1.6,0.3,2c-0.4,2-0.1,4-0.2,5.9c-0.2,3.2,0.5,6.3,1.4,9.4
		c0.2,0.7,0.4,1.4,1.3,1.1c0.4,0,0.6,0.2,0.9,0.4c0.8,0.6,1.6,0.6,2.4,0.1c1.3-0.6,1.6-0.7,2.7-1.8c0.7-0.6,1.4-1.2,3.5-3
		C295.3,614.1,296.3,613.6,297.3,613.3z"/>
	<path class="st19" d="M322.5,621.6c0.1,0.4-0.1,0.6-0.4,0.7c-0.3,0-0.6-0.1-0.9-0.2c0.2-0.4,0.4-0.4,0.7-0.6
		C322.2,621.4,322.5,621.3,322.5,621.6z"/>
	<path class="st19" d="M330.1,606.2c0.1,1.4,0.4,2.7-0.4,4c-0.3,0.5-0.4,1.2-0.4,1.8c0.1,1.7-0.5,3-1.3,4.4c-0.6,1.2-1.3,2.3-2,3.5
		c-0.6,0.9-1.6,1.2-2.5,1.5c-1.2-1.2,0.6-1.1,0.7-1.8c-0.4-0.2-0.9,0.1-1.1,0.2c-1.2,0.7-2.4,1.1-3.6,1.7c-0.9,0.5-1.9,0.5-2.9-0.1
		c-1.5-0.9-2.9-2-4.2-3.1c-1.5-1.4-2.5-3.3-3.1-5.4c-0.7-2.8-0.5-5.5-0.4-8.3c0-2.7,0.6-5.3,1.4-7.8c0.9-2.7,2.3-4.8,5-5.8
		c0.6-0.2,1.1-0.6,1.6-0.9c0.6-0.3,1.1-0.3,1.7,0.1c0,0.4-0.4,0.6-0.4,1c0.6,0.1,1.3,0.6,1.4-0.6c0-0.2,0.3-0.1,0.4-0.2
		c2.1-0.2,3.7,0.7,5.4,1.8c0.1,0,0.2,0.2,0.2,0.3c0.5,1.2,1.4,2.1,2.3,3.1c0.9,1.1,1,2.6,1.4,3.9c0.1,0.7,0.2,1.4,0.3,2.1
		C329.5,603.2,329.9,604.7,330.1,606.2z"/>
	<path class="st19" d="M359.2,571.4c0.5,2.5,0.8,5,0.3,7.6c-0.4,2.4-0.7,5.6-0.7,8.1c0.1,1.9,0,3.7,0.1,5.5c0,0.5-0.1,1-0.2,1.5
		c-0.3,1.9-0.4,3.7-0.2,5.6c0.2,2-0.3,4-0.7,5.9c-0.1,0.8-0.2,1.7-0.7,2.5c-0.1,0.3-0.2,0.6-0.7,0.4c-0.4-0.1-0.4,0.5-0.7,0.8
		c-0.4,0.4-0.8-0.7-0.8-1.3c0-0.2-0.1-0.4-0.3-0.4c-0.6,0.4-0.6-0.1-0.7-0.4c-0.1-0.6-0.4-1.1-0.7-1.6c-0.6-1-0.7-2.2-0.6-3.4
		c0-0.2,0-0.4,0.1-0.6c-0.1-1,0-2.1-0.7-3.1c-0.7-1.1-0.3-2.2-0.3-3.3c-0.1-2.4-0.4-5-0.5-7.5c-0.1-1.4,0.1-2.9-0.3-4.2
		c-0.2-0.4-0.2-0.9-0.2-1.4l-0.2-3.8c-0.1-1.6,0.3-3.2,0.1-4.9c-0.1-1,1.3-1.4,1.6-2.4c0.2-0.8,1-0.7,1.2-0.1c0.4,2.2,1.4,2.1,1-0.7
		c-0.2-1.5,1-1.4,2.1-1.3C357.5,569.2,358.8,569.8,359.2,571.4z"/>
	<path class="st19" d="M359.7,618.8c0.2,0.6-0.2,1.1-0.7,1.3c-1.3,0.4-2.4,1.8-3.8,1.3c-0.8,0-1.6,0.4-2.1-0.1
		c-0.5-0.4-0.4-1.3-0.5-1.9c-0.1-0.4-0.2-0.7-0.3-1.1c-0.2-0.9,0-1.7,0.6-2.2c0.9-0.8,1.7-1.4,2.7-1.9c0.4-0.2,0.6-0.1,1,0.1
		c1.2,0.6,1.9,1.4,2.8,2.5c0.1,0.1,0.3,0.3,0.2,0.6C359.5,617.9,359.5,618.3,359.7,618.8z"/>
	<path class="st19" d="M373.6,571.4c0.5,2.5,0.8,5,0.3,7.6c-0.4,2.4-0.7,5.6-0.7,8.1c0.1,1.9,0,3.7,0.1,5.5c0,0.5-0.1,1-0.2,1.5
		c-0.3,1.9-0.4,3.7-0.2,5.6c0.2,2-0.3,4-0.6,5.9c-0.1,0.8-0.2,1.7-0.7,2.5c-0.1,0.3-0.2,0.6-0.7,0.4c-0.4-0.1-0.4,0.5-0.7,0.8
		c-0.4,0.4-0.8-0.7-0.8-1.3c0-0.2-0.1-0.4-0.3-0.4c-0.6,0.4-0.6-0.1-0.7-0.4c-0.1-0.6-0.4-1.1-0.7-1.6c-0.6-1-0.7-2.2-0.6-3.4
		c0-0.2,0-0.4,0.1-0.6c-0.1-1,0-2.1-0.7-3.1c-0.7-1.1-0.3-2.2-0.3-3.3c-0.1-2.4-0.4-5-0.5-7.5c-0.1-1.4,0.1-2.9-0.4-4.2
		c-0.1-0.4-0.1-0.9-0.1-1.4l-0.2-3.8c-0.1-1.6,0.3-3.2,0.1-4.9c-0.2-1,1.3-1.4,1.6-2.4c0.2-0.8,1-0.7,1.1-0.1c0.4,2.2,1.4,2.1,1-0.7
		c-0.2-1.5,1-1.4,2.1-1.3C371.8,569.2,373.2,569.8,373.6,571.4z"/>
	<path class="st19" d="M374.1,618.8c0.1,0.6-0.2,1.1-0.7,1.3c-1.3,0.4-2.4,1.8-3.8,1.3c-0.8,0-1.6,0.4-2.1-0.1
		c-0.5-0.4-0.4-1.3-0.5-1.9c-0.1-0.4-0.2-0.7-0.3-1.1c-0.2-0.9,0-1.7,0.7-2.2c0.9-0.8,1.7-1.4,2.7-1.9c0.4-0.2,0.7-0.1,1,0.1
		c1.2,0.6,1.9,1.4,2.8,2.5c0.1,0.1,0.3,0.3,0.2,0.6C373.9,617.9,373.9,618.3,374.1,618.8z"/>
	<path class="st19" d="M388,571.4c0.5,2.5,0.8,5,0.3,7.6c-0.4,2.4-0.7,5.6-0.7,8.1c0.1,1.9,0,3.7,0.1,5.5c0,0.5-0.1,1-0.2,1.5
		c-0.3,1.9-0.4,3.7-0.2,5.6c0.2,2-0.3,4-0.7,5.9c-0.1,0.8-0.2,1.7-0.7,2.5c-0.1,0.3-0.2,0.6-0.7,0.4c-0.4-0.1-0.4,0.5-0.6,0.8
		c-0.4,0.4-0.8-0.7-0.8-1.3c0-0.2-0.1-0.4-0.3-0.4c-0.7,0.4-0.7-0.1-0.7-0.4c-0.1-0.6-0.4-1.1-0.7-1.6c-0.7-1-0.7-2.2-0.7-3.4
		c0-0.2,0-0.4,0.1-0.6c-0.1-1,0-2.1-0.7-3.1c-0.7-1.1-0.3-2.2-0.3-3.3c-0.1-2.4-0.4-5-0.5-7.5c-0.1-1.4,0.1-2.9-0.4-4.2
		c-0.1-0.4-0.1-0.9-0.1-1.4l-0.2-3.8c-0.1-1.6,0.3-3.2,0.1-4.9c-0.2-1,1.3-1.4,1.6-2.4c0.2-0.8,1-0.7,1.2-0.1c0.4,2.2,1.4,2.1,1-0.7
		c-0.2-1.5,1-1.4,2.1-1.3C386.2,569.2,387.6,569.8,388,571.4z"/>
	<path class="st19" d="M388.5,618.8c0.2,0.6-0.2,1.1-0.7,1.3c-1.3,0.4-2.4,1.8-3.8,1.3c-0.8,0-1.6,0.4-2.1-0.1
		c-0.5-0.4-0.4-1.3-0.5-1.9c-0.1-0.4-0.2-0.7-0.3-1.1c-0.2-0.9,0-1.7,0.6-2.2c0.9-0.8,1.7-1.4,2.7-1.9c0.4-0.2,0.6-0.1,1,0.1
		c1.2,0.6,1.9,1.4,2.8,2.5c0.1,0.1,0.3,0.3,0.2,0.6C388.3,617.9,388.3,618.3,388.5,618.8z"/>
	<path class="st19" d="M467.7,604.3c-3,3.7-6.3,6.7-7.9,10.6c-0.8,1.9-1.8,3.6-2.9,5.2c-0.4,0.5-0.8,1-1.2,1.4
		c-4.7,5.5-11.4,7.9-17.7,7.8c-0.4,0-0.8,0-1.2,0c-0.4,0-0.8,0-1.2-0.1c-0.2,0-0.5,0-0.7-0.1c-0.2,0-0.4,0-0.6-0.1c0,0-0.1,0-0.1,0
		c-0.3,0-0.5-0.1-0.8-0.1c-0.7-0.1-1.3-0.3-2-0.4c-0.2-0.1-0.4-0.1-0.6-0.2c-0.3-0.1-0.7-0.2-1-0.3c-0.2-0.1-0.4-0.1-0.6-0.2
		c-0.3-0.1-0.6-0.2-0.9-0.4c-0.2-0.1-0.4-0.2-0.6-0.3c-0.7-0.3-1.3-0.7-1.9-1c-0.3-0.2-0.6-0.4-0.9-0.6c-0.4-0.2-0.7-0.5-1-0.8
		c-0.2-0.1-0.3-0.2-0.4-0.4c-0.2-0.2-0.4-0.4-0.6-0.5c-0.2-0.2-0.3-0.3-0.5-0.5c-0.1,0-0.1-0.1-0.2-0.2c-0.8-0.9-1.5-2-2-3.1
		c-3.4-7.9-1.3-22.3-1.3-22.3l-5.8-19.7c-0.6-2.1,0.3-4.3,2.2-5.2c0.2-0.1,0.5-0.2,0.8-0.3c2.4-0.6,4.9,0.8,5.6,3.2l-1.6-5.2
		c-0.7-2.3,0.5-4.7,2.6-5.6c0,0,0,0,0,0c0.1-0.1,0.2-0.1,0.4-0.2c0.1,0,0.3-0.1,0.4-0.1l0,0c2.6-0.7,5.4,0.9,6.1,3.5l7,23.4
		l5.9-25.3c0.7-3,3.5-4.9,6.4-4.2c2.8,0.7,4.5,3.7,3.8,6.7l-0.7,3.2c0.5-2.3,2.5-3.8,4.6-3.6c0,0,0,0,0,0c0.1,0,0.2,0,0.4,0
		c0.1,0,0.3,0,0.4,0.1h0c0.8,0.2,1.4,0.6,2,1.1c0.4,0.3,0.7,0.7,0.9,1.2c0.5,1,0.7,2.1,0.4,3.3l-6.4,27.5l0,0.1
		c3.1-0.3,4.9-2,8.4-5.9c4.6-5.1,9.1-6.2,11.6-4.6c0.1,0.1,0.3,0.2,0.4,0.3c0.1,0.1,0.2,0.2,0.4,0.3c0,0,0,0.1,0.1,0.1
		c0.1,0.1,0.2,0.2,0.3,0.3c0.1,0.1,0.2,0.3,0.3,0.5C477.4,596.3,471.3,599.8,467.7,604.3z"/>
</g>
<g id="Layer_3">
	<line class="st7" x1="573.5" y1="671.6" x2="541" y2="708"/>
	<path class="st7" d="M573.5,671.6"/>
	<path class="st7" d="M541,634"/>
	<g>
		<g>
			<path class="st20" d="M228.8,616.3c0,0.6-0.4,1.2-0.9,1.6c-0.4,0.4-0.7,0.9-0.9,1.5c-0.2,0.4,0.7,0.4,0.2,0.8
				c-0.6,0.5-1.1,1.1-1.8,1.3c-0.5,0.1-0.9,0.4-1.4,0.7c-1.1-0.6-1.4-1.5-1.2-2.7c0.1-0.2,0.1-0.5,0.1-0.6c-0.4-2-0.3-4.1-0.3-6.1
				c0.1-1.2-0.3-2.4-0.2-3.7c0-1.3-0.1-2.5-0.2-3.8c-0.1-0.6-0.2-1.4,0.4-2c0.1-0.1,0.1-0.4,0.1-0.4c-0.9-0.7-0.4-1.5-0.5-2.2
				c-0.1-0.4-0.2-0.6-0.6-0.6c-0.6,0-1.3,0-1.9,0.1c-2.4,0.1-4.8-0.1-7.3,0.3c-0.2,0-0.4,0.1-0.7,0.1c-0.3,0.6-0.1,1.2,0,1.9
				c0,0.8,0.3,1.5,0,2.4c-0.1,0.2,0,0.4,0.1,0.6c0.2,0.8,0.2,1.4,0,2.4c-0.3,1.7-0.3,2.7-0.3,4c0,1.1,0.1,1.8,0.1,2.9
				c-0.1,0.6-0.2,1.7-0.1,2.1c0.4,0.9,0,1.7,0.1,2.6c0.1,0.4-0.2,0.6-0.6,0.6c-1.4,0.1-3.9,1.1-4.3-0.1c-0.1-0.2-0.4-0.1-0.7,0.5
				c-0.4,1-1.9,0.6-3,0.7c-0.3-0.4-0.4-0.9-0.4-1.4c0-2-0.2-4-0.3-5.9c-0.1-1.4,0.1-2.9,0.1-4.2c-0.1-2.2,0-5.1,0-7.4
				c0-0.7-0.1-0.7-0.9-0.9c-0.8-0.3-1.7-0.1-2.2-1c0.6-0.4,1.3-0.5,1.9-0.6c0.9-0.3,1.1-0.7,1.1-1.6c-0.3-3.2-0.4-6.2-0.3-9.4
				c0-4.7,0.1-9.4,0-14.1c0-0.5,0.1-1-0.2-1.4c-0.3-0.7-0.1-1.3,0.1-2c0.2-0.4,0.4-0.6,0.7-0.6c1.1-0.1,2.3-0.1,3.2,0.8
				c0.2,0.2,0.2,0.2,0.4,0.2c1.1-0.2,1.8,0.6,2.6,1c0.6,0.3,0.9,0.9,1,1.7c0.1,1.5,0.1,3,0,4.4v0.4c0.2,2.6-0.1,5.3,0.4,7.9
				c0.6,3.2,0.9,6.5,1,9.8c0,0.2,0,0.5,0.3,0.9c1.6-0.2,3.2-0.5,4.9-0.8c0.1,0,0.1,0,0.1-0.1c0.9-1.2,2.2-0.6,3.3-0.9h0.6
				c1.4-0.1,1.2-0.2,1.6-1.5c0.4-1.6-0.1-3.1,0-4.7c0.5-5,0.1-9.9,0.2-15c0-0.6-0.1-1.2-0.2-1.9c-0.1-0.4,0-0.9,0.4-1.1
				c0.7-0.2,0.8-0.9,1.5-0.9c0.6,0.1,0.7,0.6,0.8,1c0.3,1.1,0.4,2.3,0.4,3.5c0,0.5,0,1,0.1,1.4c0.2,1.7,0.4,3.3,0.4,5
				c0.1,1.7,0,3.3,0.2,5c0,0.1,0.1,0.3,0.5,0.4c0.1-4-0.2-11.7-0.2-12.5c0-1.7,1.3,1.9,1.3,3.2c0.1,2.7,0.2,5.3,0.5,7.8
				c0,0.6-0.1,2.4-0.1,3c0.1,2.5-0.1,5,0.2,7.6c0.1,1.7,0.2,3.2-0.1,4.9c-0.1,0.4,0.2,0.9,0.3,1.3c0.3,1.9,0.5,4,0.3,5.9v0.8
				c0.4,1.5,0.4,3.1,0.4,4.7C228.9,614.4,228.7,615.4,228.8,616.3z"/>
			<path class="st20" d="M260.1,611.3c-0.4-0.1-0.6,0.1-0.9,0.3c-0.5,0.3-0.9,0.7-1.4,0.9c-0.1,0.1-0.2,0.1-0.4,0.2
				c-1.3,0.4-1.3,0.6-2.4,1.4c-3.2,2.2-4.5,2-8.1,3.4c-1.2,0.4-2,0.2-2.7-0.9c-0.6-0.8-1.1-0.9-1.7-1.7c-0.9-1.4-1.2-3-1.8-4.6
				c1.1-0.6,1.9-1.3,3-1.7c0.7-0.3,1.4-0.7,2.2-1c1.7-0.7,2.2-1.4,3.4-2c0.1-0.2,0.1-0.4,0.4-0.5c0.9-0.3,1.1-1.2,1.4-1.9
				c0.6-1.7,0.7-2.9,0.6-4.6c-0.2-2.3-1.6-5.3-2.6-5.9l-0.8-0.5c-0.6-0.4-0.7-0.4-1.4-0.7c-0.3-0.1-0.7-0.3-1.1-0.4
				c-1.9-0.7-3.2-0.4-4.8,0.5c-0.3,0.2-0.7,0.4-0.9,0.1c0.1-0.5,1.4-0.4,1.5-0.9c-0.1-0.3-0.9-0.1-1.1-0.1c-1.4,0.3-2.5,1.1-3.5,2.2
				c-1.7,2.2-2.2,4.8-2.8,7.3c-0.5,2.2-0.8,5.6-0.7,7.9c0.1,1.2,0.2,3.2,0.2,3.8c0.1,1.2,0.4,1.7,0.6,2.8c0.1,0.2,0.1,0.4,0.2,0.7
				c0.7,2.2,2,3.7,3.7,5.4c0.9,0.9,2.2,1.3,3.2,1.3c1.7-0.1,3.8-0.1,5.2-1.1c0.6-0.4,1.8-0.4,3-1.2c0.4-0.3,1.4-0.9,1.8-1.1
				c1.4-1.1,0.8-0.7,2.4-1.4c0.3-0.1,3-1.9,3.7-2.6c0.1-0.2,0.2-0.4,0.4-0.5c0.2-0.2,0.4-0.3,0.6-0.5
				C259.4,613.1,260.3,612.9,260.1,611.3z M240.5,605.9c0.3-2.4-0.1-5.1,0.1-7.6c0.1-1.2,0.4-3.2,1.2-4.2c1-1.4,1.3-1.8,2.9-1.1
				c0.4,0.2,0.7,0.9,0.9,1.5c0.1,0.8,0.4,1.4,0.7,2.5c0.2,0.6,0.4,2.1,0.2,3.1c-0.1,0.2-0.1,0.8-0.1,1c-0.4,1.7-0.2,2.7-1.4,3.5
				c-0.9,0.6-1.7,1.4-2.8,2.1c-0.3,0.1-1,0.9-1.5,1C240.5,607.2,240.5,606.4,240.5,605.9z M242.2,619.5c-1.4-0.6-2.2-1.9-3-3.2
				c-0.4-0.6-0.4-1.1,0.1-1.8c0.6,0.9,0.7,1.9,1.4,2.6c0.7,0.6,1.2,1.4,1.7,2.2C242.4,619.2,242.3,619.3,242.2,619.5z M242.8,618.3
				c0.5,0.1,0.9,0.4,1.1,1C243.3,619.2,243,618.8,242.8,618.3z"/>
			<path class="st20" d="M297.3,613.3c-1.1,0.3-2,0.8-3,1.5c-2.1,1.7-2.8,2.3-3.5,3c-1.1,1.1-1.4,1.2-2.7,1.8
				c-0.8,0.5-1.6,0.5-2.4-0.1c-0.3-0.2-0.5-0.4-0.9-0.4c-0.9,0.2-1.1-0.4-1.3-1.1c-0.9-3-1.6-6.1-1.4-9.4c0.1-1.9-0.1-3.9,0.2-5.9
				c0.1-0.4-0.2-0.9-0.3-2c-0.1-0.3,0-1.6,0.1-1.9c0.4-1.2,1.4-2.3,1.5-3.4c0.2-1.6,0.9-2.9,1.3-4.5c0.2-1,0.3-2.2,0.8-3.1
				c0.4-0.6,0.2-1.1,0.4-1.8c0.2-1.2,0.4-2.5,0.6-3.7c0.3-2.5,0.1-5-0.7-7.4c-0.3-1.1-1-2.1-1.4-3.2c-0.3-0.8-1.4-1.3-2.4-1.1
				c-0.4,0-0.9,0.1-1.3,0.1c-1.6-0.1-3,0.4-4.2,1.3c-0.7,0.6-0.7,1.4-1.4,1.9c-0.5,0.4-0.7,0.7-0.7,1.3c0,0.6-0.3,1.1-0.3,1.7
				c0.2,2.5,0.3,5,0.1,7.6c-0.2,3.8,0.1,7.3-0.2,11.1c-0.2,2-0.1,3.6,0.2,6.3c0.1,1.5-0.1,2.3,0.2,3.8c0.1,0.6-0.1,1.4-0.5,1.9
				c-0.9,1.1-2.2,4.2-4,7.2c-0.7,1.2-1.2,2.1-2.7,2.3c-0.4,0.1-0.8,0.3-1-0.2c-0.5-0.9-1.2-1.7-1-2.8c0.4-1.9,0.1-3.8,0.3-5.7
				c0.1-0.9,0.2-1.9,0.1-2.8c-0.2-2.4-0.3-4.8-0.3-7.1c0-1.1,0.1-2.1,0.1-3.1c0.1-4.1-0.2-8.1-0.4-12.2c-0.1-1.6-0.3-3.2-1.2-4.6
				c-0.1-0.1-0.2-0.4-0.1-0.6c0.4-0.7-0.1-1.2-0.3-1.7c-0.5-1.5-1.9-1.9-3.2-1c-0.6,0.4-1.1,0.8-1.7,0.9c-0.4,0.1-0.8-0.2-1.2,0.1
				c-0.3,0.4-0.3,0.9-0.3,1.3c-0.2,0.6-0.2,1.1-0.2,1.7c-0.2,2.7,0,5.2,0,7.8c-0.1,4.9,0.2,9.8,0.2,14.7c0.1,3.5,0.1,7,0.3,10.5
				c0,0.2,0,0.4,0,0.6c0,0.4,0,0.8,0.1,1.1c0.2,2,0.9,4,2.1,5.7c0.5,0.7,1.2,1.2,1.8,1.8c0.2,0.2,0.9,0.3,1.4-0.1
				c-0.9-0.5-1.3-1.5-2.2-2.2c0.8,0.1,1.2,0.4,1.6,0.7l1.1,0.9c1.7,1.3,2.4,1,4.2,0.3c0.2-0.1,1.1-0.3,1.1-0.7
				c-0.1-0.4,0.2-0.4,0.5-0.6c1.3-1.3,1.4-2.2,2.7-4c0.7-0.9,1.4-3.1,2.2-4.4c0.1-0.3,0.5-0.8,0.8-1.2c0.4,0.8,0.6,1.9,0.7,2.7
				c0.4,1.6,0.8,3.2,1.8,4.5c1,1.4,2.5,2.4,4,3.4c1,0.7,2.2,1.3,3.5,1.6c0.7,0.1,1.3,0.1,1.8-0.4c1,0,2-0.2,2.4-1
				c0.3-0.2,0.5-0.4,0.9-0.5c1.1-0.4,2.8-2.5,3.5-3.2c1.4-0.9,1.4-1.7,2.9-2.6c0.2-0.1,0.4-0.4,0.6-0.5
				C297.5,614,297.6,613.7,297.3,613.3z M278.6,572.1c0.5-0.5,1-0.4,1.8-0.4C279.7,572.1,279.3,572.5,278.6,572.1z M280.9,610.5
				c-0.3-0.6-0.8-4.6-0.4-6.5C281.1,604.8,281.2,608.8,280.9,610.5z M281.6,594.5c-0.7-1.3-0.4-2.6-0.1-3.8c0.3-1.6,0.2-3.2,0.1-4.9
				c-0.2-2.5-0.4-5-0.7-7.3l-0.1-1.4c0-1.2,0.1-1.6-0.2-2.9c-0.1-0.4,0.2-0.6,0.5-0.7c0.9-0.4,0.7,0,1.6-0.3
				c0.1-0.1,0.3,0.1,0.4,0.2c0.6,0.9,1.4,1.7,1.4,2.8c0.1,1.7,0.2,3.4,0.1,5.1c-0.2,2.5-0.6,4.1-1.1,6.5
				C283,589.8,282.9,592.6,281.6,594.5z"/>
			<path class="st20" d="M322.5,621.6c-0.1-0.4-0.3-0.2-0.6-0.1c-0.2,0.1-0.4,0.1-0.7,0.6c0.3,0.2,0.7,0.2,0.9,0.2
				C322.5,622.2,322.7,622,322.5,621.6z M330.1,606.2c-0.2-1.5-0.6-3-0.6-4.5c-0.1-0.7-0.2-1.4-0.3-2.1c-0.4-1.3-0.5-2.7-1.4-3.9
				c-0.9-1-1.8-1.9-2.3-3.1c0-0.1-0.1-0.3-0.2-0.3c-1.7-1.1-3.3-2-5.4-1.8c-0.2,0.1-0.4,0-0.4,0.2c-0.2,1.2-0.9,0.7-1.4,0.6
				c0-0.4,0.4-0.6,0.4-1c-0.6-0.4-1.1-0.4-1.7-0.1c-0.5,0.3-1,0.7-1.6,0.9c-2.7,1.1-4,3.2-5,5.8c-0.8,2.5-1.4,5.1-1.4,7.8
				c-0.2,2.8-0.3,5.5,0.4,8.3c0.6,2.1,1.6,4,3.1,5.4c1.3,1.1,2.7,2.2,4.2,3.1c1,0.6,2,0.6,2.9,0.1c1.2-0.6,2.5-0.9,3.6-1.7
				c0.3-0.1,0.7-0.4,1.1-0.2c-0.1,0.7-1.9,0.6-0.7,1.8c0.9-0.4,2-0.6,2.5-1.5c0.7-1.2,1.4-2.3,2-3.5c0.8-1.4,1.4-2.7,1.3-4.4
				c0-0.6,0.1-1.3,0.4-1.8C330.5,609,330.2,607.6,330.1,606.2z M323.9,612.6c-0.2,1.9-0.8,3.8-2.2,5.4c-0.1,0.4-0.6,0.7-1.2,0.9
				c-0.3-0.7-0.5-1.5-1.5-1.2c-0.4,0.2-0.5-0.2-0.6-0.5c-1.4-2.3-2-4.8-1.7-7.5c0.1-0.8,0-1.7,0-2.5c-0.2-1-0.1-2,0.1-3.1
				c0.2-1.4,0-3-0.1-4.4c-0.2-1.2,0.2-2.1,0.5-3.1c0.2-1,0.7-1.9,0.9-2.9c0.8,0.1,1.6,0.1,2.3-0.3c0.7-0.4,1.4-0.1,2,0.4
				c1.2,0.9,1.8,2.3,1.9,3.8l0.1,6C324.3,606.7,324.2,609.7,323.9,612.6z"/>
			<path class="st20" d="M359.7,618.8c-0.1-0.5-0.2-0.9,0-1.4c0.1-0.2-0.1-0.4-0.2-0.6c-0.9-1.1-1.6-1.8-2.8-2.5
				c-0.4-0.2-0.6-0.3-1-0.1c-1,0.5-1.9,1.2-2.7,1.9c-0.6,0.5-0.9,1.3-0.6,2.2c0.1,0.4,0.2,0.7,0.3,1.1c0.1,0.6,0,1.4,0.5,1.9
				c0.5,0.4,1.3,0.1,2.1,0.1c1.4,0.5,2.5-0.9,3.8-1.3C359.5,619.9,359.8,619.4,359.7,618.8z M359.2,571.4c-0.4-1.7-1.7-2.2-2.9-2.4
				c-1.1-0.2-2.3-0.2-2.1,1.3c0.4,2.8-0.6,3-1,0.7c-0.1-0.6-0.9-0.7-1.2,0.1c-0.3,1-1.7,1.4-1.6,2.4c0.2,1.7-0.1,3.3-0.1,4.9
				l0.2,3.8c0,0.4,0,0.9,0.2,1.4c0.4,1.4,0.3,2.8,0.3,4.2c0.2,2.5,0.4,5,0.5,7.5c0,1.2-0.4,2.2,0.3,3.3c0.7,1,0.7,2.1,0.7,3.1
				c-0.1,0.2-0.1,0.4-0.1,0.6c-0.1,1.2,0,2.4,0.6,3.4c0.4,0.5,0.6,0.9,0.7,1.6c0.1,0.3,0.1,0.9,0.7,0.4c0.1-0.1,0.3,0.2,0.3,0.4
				c0,0.6,0.4,1.7,0.8,1.3c0.3-0.3,0.3-0.9,0.7-0.8c0.5,0.1,0.6-0.1,0.7-0.4c0.5-0.8,0.6-1.7,0.7-2.5c0.4-1.9,0.9-3.9,0.7-5.9
				c-0.1-1.9-0.1-3.7,0.2-5.6c0.1-0.5,0.2-1,0.2-1.5c-0.1-1.8-0.1-3.6-0.1-5.5c0-2.5,0.3-5.7,0.7-8.1
				C360,576.5,359.7,574,359.2,571.4z"/>
			<path class="st20" d="M374.1,618.8c-0.1-0.5-0.2-0.9,0-1.4c0.1-0.2-0.1-0.4-0.2-0.6c-0.9-1.1-1.6-1.8-2.8-2.5
				c-0.4-0.2-0.7-0.3-1-0.1c-1,0.5-1.9,1.2-2.7,1.9c-0.7,0.5-0.9,1.3-0.7,2.2c0.1,0.4,0.2,0.7,0.3,1.1c0.1,0.6,0,1.4,0.5,1.9
				c0.5,0.4,1.3,0.1,2.1,0.1c1.4,0.5,2.5-0.9,3.8-1.3C373.9,619.9,374.2,619.4,374.1,618.8z M373.6,571.4c-0.4-1.7-1.7-2.2-2.9-2.4
				c-1.1-0.2-2.3-0.2-2.1,1.3c0.4,2.8-0.6,3-1,0.7c-0.1-0.6-0.9-0.7-1.1,0.1c-0.3,1-1.7,1.4-1.6,2.4c0.2,1.7-0.2,3.3-0.1,4.9
				l0.2,3.8c0,0.4,0,0.9,0.1,1.4c0.4,1.4,0.3,2.8,0.4,4.2c0.1,2.5,0.4,5,0.5,7.5c0,1.2-0.4,2.2,0.3,3.3c0.7,1,0.6,2.1,0.7,3.1
				c-0.1,0.2-0.1,0.4-0.1,0.6c-0.1,1.2,0,2.4,0.6,3.4c0.4,0.5,0.6,0.9,0.7,1.6c0.1,0.3,0.1,0.9,0.7,0.4c0.2-0.1,0.3,0.2,0.3,0.4
				c0,0.6,0.4,1.7,0.8,1.3c0.3-0.3,0.3-0.9,0.7-0.8c0.5,0.1,0.6-0.1,0.7-0.4c0.5-0.8,0.6-1.7,0.7-2.5c0.4-1.9,0.9-3.9,0.6-5.9
				c-0.1-1.9-0.1-3.7,0.2-5.6c0.1-0.5,0.2-1,0.2-1.5c-0.1-1.8-0.1-3.6-0.1-5.5c0-2.5,0.3-5.7,0.7-8.1
				C374.4,576.5,374.1,574,373.6,571.4z"/>
			<path class="st20" d="M388.5,618.8c-0.1-0.5-0.2-0.9,0-1.4c0.1-0.2-0.1-0.4-0.2-0.6c-0.9-1.1-1.6-1.8-2.8-2.5
				c-0.4-0.2-0.7-0.3-1-0.1c-1,0.5-1.9,1.2-2.7,1.9c-0.6,0.5-0.9,1.3-0.6,2.2c0.1,0.4,0.2,0.7,0.3,1.1c0.1,0.6,0,1.4,0.5,1.9
				c0.5,0.4,1.3,0.1,2.1,0.1c1.4,0.5,2.5-0.9,3.8-1.3C388.3,619.9,388.6,619.4,388.5,618.8z M388,571.4c-0.4-1.7-1.7-2.2-2.9-2.4
				c-1.1-0.2-2.3-0.2-2.1,1.3c0.4,2.8-0.6,3-1,0.7c-0.1-0.6-0.9-0.7-1.2,0.1c-0.3,1-1.7,1.4-1.6,2.4c0.2,1.7-0.2,3.3-0.1,4.9
				l0.2,3.8c0,0.4,0,0.9,0.1,1.4c0.4,1.4,0.3,2.8,0.4,4.2c0.2,2.5,0.4,5,0.5,7.5c0,1.2-0.4,2.2,0.3,3.3c0.7,1,0.6,2.1,0.7,3.1
				c-0.1,0.2-0.1,0.4-0.1,0.6c-0.1,1.2,0,2.4,0.7,3.4c0.4,0.5,0.6,0.9,0.7,1.6c0.1,0.3,0.1,0.9,0.7,0.4c0.2-0.1,0.3,0.2,0.3,0.4
				c0,0.6,0.4,1.7,0.8,1.3c0.3-0.3,0.3-0.9,0.6-0.8c0.5,0.1,0.6-0.1,0.7-0.4c0.5-0.8,0.6-1.7,0.7-2.5c0.4-1.9,0.9-3.9,0.7-5.9
				c-0.1-1.9-0.1-3.7,0.2-5.6c0.1-0.5,0.2-1,0.2-1.5c-0.1-1.8-0.1-3.6-0.1-5.5c0-2.5,0.3-5.7,0.7-8.1
				C388.8,576.5,388.5,574,388,571.4z"/>
			<g>
				<path class="st21" d="M460.6,573.8l-6.4,27.5l0,0.1l-2.1,9.2l-1.5-0.4l-7.1-1.7l1.2-5.3l0.4-1.8h0l1.1-4.8l0.7-3l5.1-21.9
					c0.5-2.3,2.5-3.8,4.6-3.6c0,0,0,0,0,0c0.1,0,0.2,0,0.4,0c0.1,0,0.3,0,0.4,0.1h0c0.8,0.2,1.4,0.6,2,1.1c0.4,0.3,0.7,0.7,0.9,1.2
					C460.7,571.5,460.8,572.7,460.6,573.8z"/>
				<path class="st21" d="M452.7,568.7l-0.7,3.2l-5.1,21.9l-0.7,3l-1.1,4.8h0l-0.4,1.8l-1.2,5.3l-4.5-1.1l-1.3-0.3l-2.1-0.5
					l-2.2-0.5l2.1-9l1.2-5.1l0.1-0.6v0l5.9-25.3c0.7-3,3.5-4.9,6.4-4.2C451.7,562.7,453.4,565.7,452.7,568.7z"/>
				<path class="st21" d="M440.7,605.3l-2.2,0.6l-3,0.8l-4.3,1.1l-3.1-10.4l-1.2-4l-2.4-8.2l-2.8-9.4l-1.6-5.2
					c-0.7-2.3,0.5-4.7,2.6-5.6c0,0,0,0,0,0c0.1-0.1,0.2-0.1,0.4-0.2c0.1,0,0.3-0.1,0.4-0.1l0,0c2.6-0.7,5.4,0.9,6.1,3.5l7,23.4v0
					l0.3,0.9l1.4,4.6l2.1,7L440.7,605.3z"/>
				<path class="st21" d="M431.2,607.8l-8.7,2.2l-3.6-12.2l-5.8-19.7c-0.6-2.1,0.3-4.3,2.2-5.2c0.2-0.1,0.5-0.2,0.8-0.3
					c2.4-0.6,4.9,0.8,5.6,3.2l2.8,9.4l2.4,8.2h0l1.2,4L431.2,607.8z"/>
				<path class="st22" d="M460.6,573.8l-6.4,27.5l0,0.1l-2.1,9.2l-1.5-0.4l2-8.7l0.1-0.6l1-4.5l5.3-23c0.5-2.2-0.6-4.4-2.5-5.3
					c0.1,0,0.2,0,0.4,0c0.1,0,0.3,0,0.4,0.1h0c0.8,0.2,1.4,0.6,2,1.1c0.4,0.3,0.6,0.7,0.9,1.2C460.7,571.5,460.8,572.7,460.6,573.8z
					"/>
				<path class="st22" d="M452.7,568.7l-0.7,3.2l-5.1,21.9l-1-2.8l5.3-22.6c0.6-2.7-0.7-5.4-3.1-6.4c0.3,0,0.5,0,0.8,0.1
					C451.7,562.7,453.4,565.7,452.7,568.7z"/>
				<path class="st22" d="M436.9,592.5l-0.4-0.4l-2-1.8l-6.5-21.8c-0.7-2.3-3-3.8-5.3-3.6c0.1-0.1,0.2-0.1,0.4-0.2
					c0.1,0,0.3-0.1,0.4-0.1l0,0c2.6-0.7,5.4,0.9,6.1,3.5l7,23.4L436.9,592.5z"/>
				<path class="st22" d="M426.9,593.5L426.9,593.5l-2.3-1.9l-4.5-15.3c-0.6-2.1-2.6-3.5-4.8-3.4c0.2-0.1,0.5-0.2,0.8-0.3
					c2.4-0.6,4.9,0.8,5.6,3.2l2.8,9.4L426.9,593.5z"/>
				<path class="st21" d="M467.7,604.3c-3,3.7-6.3,6.7-7.9,10.6c-0.8,1.9-1.8,3.6-2.9,5.2c-0.4,0.5-0.8,1-1.2,1.4
					c-4.7,5.5-11.4,7.9-17.7,7.8c-0.4,0-0.8,0-1.2,0c-0.4,0-0.8,0-1.2-0.1c-0.2,0-0.5,0-0.7-0.1c-0.2,0-0.4,0-0.6-0.1
					c0,0-0.1,0-0.1,0c-0.3,0-0.5-0.1-0.8-0.1c-0.7-0.1-1.3-0.3-2-0.4c-0.2-0.1-0.4-0.1-0.6-0.2c-0.3-0.1-0.7-0.2-1-0.3
					c-0.2-0.1-0.4-0.1-0.6-0.2c-0.3-0.1-0.6-0.2-0.9-0.4c-0.2-0.1-0.4-0.2-0.6-0.3c-0.7-0.3-1.3-0.7-1.9-1c-0.3-0.2-0.6-0.4-0.9-0.6
					c-0.4-0.2-0.7-0.5-1-0.8c-0.2-0.1-0.3-0.2-0.4-0.4c-0.2-0.2-0.4-0.4-0.6-0.5c-0.2-0.2-0.3-0.3-0.5-0.5c0,0-0.1-0.1-0.1-0.1
					c0,0,0,0,0,0c-0.8-0.9-1.5-2-2-3.1c-3.4-7.9-1.3-22.3-1.3-22.3l9.2-0.4l7.2-0.3l3-0.1l7.9-0.3l7.5-0.3l-0.8,4.6l-0.1,0.5
					c0.1,0,0.3,0,0.4,0c0.2,0,0.3,0,0.4,0c0.2,0,0.3,0,0.5,0c3.1-0.3,4.9-2,8.4-5.9c4.6-5.1,9.1-6.2,11.6-4.6
					c0.1,0.1,0.3,0.2,0.4,0.3c0.1,0.1,0.2,0.2,0.4,0.3c0,0,0,0.1,0.1,0.1c0.1,0.1,0.2,0.2,0.3,0.3c0.1,0.1,0.2,0.3,0.3,0.5
					C477.4,596.3,471.3,599.8,467.7,604.3z"/>
				<path class="st22" d="M467.7,604.3c-3,3.7-6.3,6.7-7.9,10.6c-0.8,1.9-1.8,3.6-2.9,5.2c-0.4,0.5-0.8,1-1.2,1.4
					c-4.7,5.5-11.4,7.9-17.7,7.8c-0.4,0-0.8,0-1.2,0c-0.4,0-0.8,0-1.2-0.1c-0.2,0-0.5,0-0.7-0.1c-0.2,0-0.4,0-0.6-0.1
					c0,0-0.1,0-0.1,0c-0.3,0-0.5-0.1-0.8-0.1c-0.7-0.1-1.3-0.3-2-0.4c-0.2-0.1-0.4-0.1-0.6-0.2c-0.3-0.1-0.7-0.2-1-0.3
					c-0.2-0.1-0.4-0.1-0.6-0.2c-0.3-0.1-0.6-0.2-0.9-0.4c-0.2-0.1-0.4-0.2-0.6-0.3c-0.7-0.3-1.3-0.7-1.9-1c-0.3-0.2-0.6-0.4-0.9-0.6
					c-0.4-0.2-0.7-0.5-1-0.8c-0.2-0.1-0.3-0.2-0.4-0.4c-0.2-0.2-0.4-0.4-0.6-0.5c-0.2-0.2-0.3-0.3-0.5-0.5c-0.1,0-0.1-0.1-0.2-0.2
					c0,0,0,0,0,0c8.7,7.9,29.2,7.9,36.4-9.3c1.6-4,5-6.9,7.9-10.6c3.6-4.5,9.7-8,7.8-11.8c-0.1-0.2-0.2-0.3-0.3-0.4
					c0.1,0.1,0.3,0.2,0.4,0.3c0.1,0.1,0.2,0.2,0.4,0.3c0,0,0,0.1,0.1,0.1c0.1,0.1,0.2,0.2,0.3,0.3c0.1,0.1,0.2,0.3,0.3,0.5
					C477.4,596.3,471.3,599.8,467.7,604.3z"/>
				<path class="st22" d="M454.2,601.4c-7.3-2.7-20.2,2.3-18.4,15.4c0-12.3,11.3-15.3,17.4-15.3
					C453.9,601.5,454.2,601.4,454.2,601.4z"/>
			</g>
		</g>
	</g>
</g>
</svg>
